<svg xmlns="http://www.w3.org/2000/svg" viewBox="0 0 1200 720" font-family="-apple-system, BlinkMacSystemFont, 'Segoe UI', Inter, sans-serif">
  <rect width="1200" height="720" fill="#0a0a0f"/>

  <!-- Browser chrome -->
  <rect x="0" y="0" width="1200" height="34" fill="#161821"/>
  <circle cx="20" cy="17" r="6" fill="#ff6058"/>
  <circle cx="40" cy="17" r="6" fill="#febc3a"/>
  <circle cx="60" cy="17" r="6" fill="#28c941"/>
  <rect x="120" y="8" width="600" height="20" rx="4" fill="#0a0a0f" stroke="#23262f"/>
  <text x="135" y="22" fill="#a8acb8" font-size="11">🔒 http://localhost:8501  —  Praxia UI</text>

  <!-- Sidebar -->
  <rect x="0" y="34" width="240" height="686" fill="#0e1018"/>
  <text x="20" y="62" fill="#ecedf0" font-size="16" font-weight="700">🪡 Praxia</text>
  <text x="20" y="80" fill="#a8acb8" font-size="11">Multi-agent orchestrator</text>

  <!-- Sidebar inputs -->
  <text x="20" y="118" fill="#a8acb8" font-size="11">User ID</text>
  <rect x="20" y="124" width="200" height="28" rx="4" fill="#15171f" stroke="#23262f"/>
  <text x="32" y="143" fill="#ecedf0" font-size="12">alice</text>

  <text x="20" y="170" fill="#a8acb8" font-size="11">Org ID</text>
  <rect x="20" y="176" width="200" height="28" rx="4" fill="#15171f" stroke="#23262f"/>
  <text x="32" y="195" fill="#ecedf0" font-size="12">acme-corp</text>

  <text x="20" y="222" fill="#a8acb8" font-size="11">LLM Model</text>
  <rect x="20" y="228" width="200" height="28" rx="4" fill="#15171f" stroke="#c9a456"/>
  <text x="32" y="247" fill="#e9c378" font-size="12">claude (anthropic/claude-opus-4-7)</text>

  <text x="20" y="274" fill="#a8acb8" font-size="11">Memory Backend</text>
  <rect x="20" y="280" width="200" height="28" rx="4" fill="#15171f" stroke="#23262f"/>
  <text x="32" y="299" fill="#ecedf0" font-size="12">mem0</text>

  <line x1="20" y1="330" x2="220" y2="330" stroke="#23262f"/>
  <text x="20" y="350" fill="#a8acb8" font-size="11">📚 README</text>
  <text x="20" y="368" fill="#a8acb8" font-size="11">🐛 Issues</text>

  <!-- Tab bar -->
  <g font-size="12" fill="#a8acb8">
    <rect x="260" y="60" width="92" height="28" rx="14" fill="rgba(201,164,86,0.12)" stroke="#8b6f30"/>
    <text x="306" y="79" fill="#e9c378" font-weight="600" text-anchor="middle">🎬 Run Flow</text>
    <text x="380" y="79">🛠 Skill</text>
    <text x="430" y="79">🧠 Memory</text>
    <text x="500" y="79">🌙 Consolidate</text>
    <text x="595" y="79">📊 Dashboard</text>
    <text x="675" y="79">📝 Prompts</text>
    <text x="740" y="79">👥 Users</text>
    <text x="795" y="79">🔌 Connectors</text>
    <text x="880" y="79">🛡 Policies</text>
    <text x="950" y="79">💾 Admin</text>
    <text x="1020" y="79">ℹ About</text>
  </g>

  <!-- Main heading -->
  <text x="280" y="124" fill="#ecedf0" font-size="22" font-weight="700">🎬 Run a multi-agent flow</text>

  <!-- Flow selector -->
  <text x="280" y="160" fill="#a8acb8" font-size="11">Select flow</text>
  <rect x="280" y="166" width="280" height="34" rx="6" fill="#15171f" stroke="#c9a456"/>
  <text x="296" y="188" fill="#e9c378" font-size="13" font-weight="600">sales-agent</text>
  <text x="540" y="188" fill="#a8acb8" font-size="14" text-anchor="end">▾</text>

  <!-- Inputs -->
  <text x="280" y="226" fill="#a8acb8" font-size="11">Customer name</text>
  <rect x="280" y="232" width="600" height="32" rx="6" fill="#15171f" stroke="#23262f"/>
  <text x="296" y="252" fill="#ecedf0" font-size="13">Acme Manufacturing Inc. (fictional)</text>

  <text x="280" y="280" fill="#a8acb8" font-size="11">Our product</text>
  <rect x="280" y="286" width="600" height="32" rx="6" fill="#15171f" stroke="#23262f"/>
  <text x="296" y="306" fill="#ecedf0" font-size="13">Praxia Sales</text>

  <text x="280" y="334" fill="#a8acb8" font-size="11">Additional context</text>
  <rect x="280" y="340" width="600" height="58" rx="6" fill="#15171f" stroke="#23262f"/>
  <text x="296" y="360" fill="#ecedf0" font-size="12">Mid-term plan calls for ~30B JPY DX investment</text>
  <text x="296" y="378" fill="#ecedf0" font-size="12">~12B JPY estimated for electronic-component initiatives</text>

  <!-- Run button -->
  <rect x="280" y="420" width="120" height="36" rx="18" fill="url(#g1)"/>
  <defs>
    <linearGradient id="g1" x1="0" x2="1" y2="1">
      <stop offset="0" stop-color="#e9c378"/>
      <stop offset="1" stop-color="#8b6f30"/>
    </linearGradient>
  </defs>
  <text x="340" y="443" fill="#1a1408" font-size="13" font-weight="700" text-anchor="middle">▶ Run</text>

  <!-- Output panel -->
  <rect x="280" y="478" width="900" height="220" rx="10" fill="#15171f" stroke="#28c941"/>
  <text x="296" y="502" fill="#28c941" font-size="11" font-weight="700">✓ FINAL OUTPUT</text>
  <text x="296" y="528" fill="#ecedf0" font-size="13" font-weight="600">## Executive Summary</text>
  <text x="296" y="552" fill="#a8acb8" font-size="12">- ~12B JPY of recent DX investment is in electronic-component initiatives</text>
  <text x="296" y="572" fill="#a8acb8" font-size="12">- IR materials show appetite for factory IoT / anomaly-detection projects</text>
  <text x="296" y="600" fill="#ecedf0" font-size="13" font-weight="600">## Top-3 pain hypotheses</text>
  <text x="296" y="622" fill="#a8acb8" font-size="12">1. Cross-factory data lag → Praxia Sales gives a clear roadmap</text>
  <text x="296" y="642" fill="#a8acb8" font-size="12">2. Veteran know-how transfer → covered by personal-to-org memory cycle</text>
  <text x="296" y="662" fill="#a8acb8" font-size="12">3. Skill variance across proposal teams → standardize via skill registry</text>
  <text x="296" y="688" fill="#6f7382" font-size="11">usage: in=4,852 out=2,140 tokens · model: anthropic/claude-opus-4-7</text>
</svg>
