<svg xmlns="http://www.w3.org/2000/svg" viewBox="0 0 1200 720" font-family="-apple-system, BlinkMacSystemFont, 'Segoe UI', Inter, sans-serif">
  <rect width="1200" height="720" fill="#0a0a0f"/>
  <rect x="0" y="0" width="1200" height="34" fill="#161821"/>
  <circle cx="20" cy="17" r="6" fill="#ff6058"/><circle cx="40" cy="17" r="6" fill="#febc3a"/><circle cx="60" cy="17" r="6" fill="#28c941"/>
  <text x="135" y="22" fill="#a8acb8" font-size="11">🔒 http://localhost:8501  —  Praxia / Users</text>

  <rect x="0" y="34" width="240" height="686" fill="#0e1018"/>
  <text x="20" y="62" fill="#ecedf0" font-size="16" font-weight="700">🪡 Praxia</text>
  <text x="20" y="86" fill="#a8acb8" font-size="11">Logged in as</text>
  <text x="20" y="106" fill="#e9c378" font-size="13" font-weight="600">admin@acme</text>
  <text x="20" y="124" fill="#28c941" font-size="11">● Role: admin</text>

  <!-- Tabs -->
  <g font-size="12" fill="#a8acb8">
    <text x="290" y="65">🎬</text><text x="320" y="65">🛠</text><text x="350" y="65">🧠</text>
    <text x="385" y="65">🌙</text><text x="425" y="65">📊</text><text x="465" y="65">📝</text>
    <rect x="500" y="48" width="78" height="26" rx="13" fill="rgba(201,164,86,0.12)" stroke="#8b6f30"/>
    <text x="539" y="65" fill="#e9c378" font-weight="600" text-anchor="middle">👥 Users</text>
    <text x="600" y="65">🔌</text><text x="640" y="65">🛡</text><text x="685" y="65">💾</text>
  </g>

  <text x="280" y="116" fill="#ecedf0" font-size="22" font-weight="700">👥 User management</text>

  <!-- Sub-tabs -->
  <g font-size="12">
    <rect x="280" y="146" width="80" height="28" rx="14" fill="rgba(201,164,86,0.12)" stroke="#8b6f30"/>
    <text x="320" y="164" fill="#e9c378" font-weight="600" text-anchor="middle">List</text>
    <text x="395" y="164" fill="#a8acb8">Create</text>
    <text x="450" y="164" fill="#a8acb8">Edit / Delete</text>
  </g>

  <!-- Table header -->
  <rect x="280" y="194" width="900" height="30" rx="6" fill="rgba(201,164,86,0.05)"/>
  <g font-size="11" fill="#a8acb8">
    <text x="296" y="214">USERNAME</text>
    <text x="476" y="214">ROLE</text>
    <text x="616" y="214">EMAIL</text>
    <text x="906" y="214">ACTIVE</text>
    <text x="1006" y="214">CREATED</text>
    <text x="1130" y="214">ACTIONS</text>
  </g>

  <!-- Rows -->
  <g font-size="12">
    <rect x="280" y="226" width="900" height="40" fill="#15171f"/>
    <text x="296" y="252" fill="#ecedf0">alice@acme</text>
    <rect x="476" y="240" width="80" height="20" rx="10" fill="rgba(201,164,86,0.12)"/>
    <text x="516" y="254" fill="#e9c378" font-size="11" font-weight="600" text-anchor="middle">operator</text>
    <text x="616" y="252" fill="#a8acb8">alice@acme.co.jp</text>
    <text x="906" y="252" fill="#28c941">✓</text>
    <text x="1006" y="252" fill="#a8acb8">2026-01-15</text>
    <text x="1130" y="252" fill="#c9a456">⋯</text>

    <rect x="280" y="268" width="900" height="40" fill="#0e1018"/>
    <text x="296" y="294" fill="#ecedf0">bob@acme</text>
    <rect x="476" y="282" width="68" height="20" rx="10" fill="rgba(140,200,255,0.12)"/>
    <text x="510" y="296" fill="#8cc8ff" font-size="11" font-weight="600" text-anchor="middle">admin</text>
    <text x="616" y="294" fill="#a8acb8">bob@acme.co.jp</text>
    <text x="906" y="294" fill="#28c941">✓</text>
    <text x="1006" y="294" fill="#a8acb8">2026-01-12</text>
    <text x="1130" y="294" fill="#c9a456">⋯</text>

    <rect x="280" y="310" width="900" height="40" fill="#15171f"/>
    <text x="296" y="336" fill="#ecedf0">charlie@acme</text>
    <rect x="476" y="324" width="80" height="20" rx="10" fill="rgba(160,160,160,0.12)"/>
    <text x="516" y="338" fill="#a8acb8" font-size="11" font-weight="600" text-anchor="middle">member</text>
    <text x="616" y="336" fill="#a8acb8">charlie@acme.co.jp</text>
    <text x="906" y="336" fill="#28c941">✓</text>
    <text x="1006" y="336" fill="#a8acb8">2026-02-03</text>
    <text x="1130" y="336" fill="#c9a456">⋯</text>

    <rect x="280" y="352" width="900" height="40" fill="#0e1018"/>
    <text x="296" y="378" fill="#ecedf0">dana@acme</text>
    <rect x="476" y="366" width="80" height="20" rx="10" fill="rgba(160,160,160,0.12)"/>
    <text x="516" y="380" fill="#a8acb8" font-size="11" font-weight="600" text-anchor="middle">member</text>
    <text x="616" y="378" fill="#a8acb8">dana@acme.co.jp</text>
    <text x="906" y="378" fill="#28c941">✓</text>
    <text x="1006" y="378" fill="#a8acb8">2026-02-10</text>
    <text x="1130" y="378" fill="#c9a456">⋯</text>

    <rect x="280" y="394" width="900" height="40" fill="#15171f"/>
    <text x="296" y="420" fill="#ecedf0">eric@acme</text>
    <rect x="476" y="408" width="80" height="20" rx="10" fill="rgba(160,160,160,0.12)"/>
    <text x="516" y="422" fill="#a8acb8" font-size="11" font-weight="600" text-anchor="middle">viewer</text>
    <text x="616" y="420" fill="#a8acb8">eric@acme.co.jp</text>
    <text x="906" y="420" fill="#ff8b80">✗</text>
    <text x="1006" y="420" fill="#a8acb8">2025-12-01</text>
    <text x="1130" y="420" fill="#c9a456">⋯</text>
  </g>

  <!-- Edit panel -->
  <rect x="280" y="464" width="900" height="220" rx="10" fill="#15171f" stroke="#23262f"/>
  <text x="296" y="488" fill="#ecedf0" font-size="14" font-weight="600">Edit user: charlie@acme</text>

  <text x="296" y="520" fill="#a8acb8" font-size="11">New role</text>
  <rect x="296" y="528" width="200" height="28" rx="6" fill="#0a0a0f" stroke="#c9a456"/>
  <text x="312" y="547" fill="#e9c378" font-size="13" font-weight="600">operator</text>
  <text x="478" y="547" fill="#a8acb8" font-size="14" text-anchor="end">▾</text>

  <text x="516" y="520" fill="#a8acb8" font-size="11">New email</text>
  <rect x="516" y="528" width="280" height="28" rx="6" fill="#0a0a0f" stroke="#23262f"/>
  <text x="528" y="547" fill="#ecedf0" font-size="13">charlie@acme.co.jp</text>

  <!-- Action buttons -->
  <rect x="296" y="586" width="120" height="32" rx="16" fill="url(#gu1)"/>
  <text x="356" y="606" fill="#1a1408" font-size="12" font-weight="700" text-anchor="middle">Update</text>

  <rect x="430" y="586" width="160" height="32" rx="16" fill="rgba(140,200,255,0.12)" stroke="#8cc8ff"/>
  <text x="510" y="606" fill="#8cc8ff" font-size="12" font-weight="700" text-anchor="middle">🔑 Rotate API key</text>

  <rect x="604" y="586" width="140" height="32" rx="16" fill="rgba(255,206,92,0.12)" stroke="#ffce5c"/>
  <text x="674" y="606" fill="#ffce5c" font-size="12" font-weight="700" text-anchor="middle">⏸ Deactivate</text>

  <rect x="758" y="586" width="180" height="32" rx="16" fill="rgba(255,96,88,0.12)" stroke="#ff6058"/>
  <text x="848" y="606" fill="#ff8b80" font-size="12" font-weight="700" text-anchor="middle">🗑 Delete (audit logged)</text>

  <text x="296" y="654" fill="#a8acb8" font-size="11">All operations recorded in the audit log with action="user.update" / "user.delete" etc.</text>

  <defs>
    <linearGradient id="gu1" x1="0" x2="1" y2="1">
      <stop offset="0" stop-color="#e9c378"/>
      <stop offset="1" stop-color="#8b6f30"/>
    </linearGradient>
  </defs>
</svg>
