<svg xmlns="http://www.w3.org/2000/svg" viewBox="0 0 1200 720" font-family="-apple-system, BlinkMacSystemFont, 'Segoe UI', Inter, sans-serif">
  <rect width="1200" height="720" fill="#0a0a0f"/>

  <!-- Browser chrome -->
  <rect x="0" y="0" width="1200" height="34" fill="#161821"/>
  <circle cx="20" cy="17" r="6" fill="#ff6058"/>
  <circle cx="40" cy="17" r="6" fill="#febc3a"/>
  <circle cx="60" cy="17" r="6" fill="#28c941"/>
  <rect x="120" y="8" width="600" height="20" rx="4" fill="#0a0a0f" stroke="#23262f"/>
  <text x="135" y="22" fill="#a8acb8" font-size="11">🔒 http://localhost:8501  —  Praxia Dashboard</text>

  <!-- Sidebar -->
  <rect x="0" y="34" width="240" height="686" fill="#0e1018"/>
  <text x="20" y="62" fill="#ecedf0" font-size="16" font-weight="700">🪡 Praxia</text>
  <text x="20" y="80" fill="#a8acb8" font-size="11">Dashboard scope</text>
  <rect x="20" y="90" width="200" height="28" rx="4" fill="#15171f" stroke="#c9a456"/>
  <text x="32" y="109" fill="#e9c378" font-size="12">org (default-org)</text>

  <!-- Tab bar (highlight Dashboard) -->
  <g font-size="12" fill="#a8acb8">
    <text x="290" y="65">🎬 Run</text>
    <text x="345" y="65">🛠 Skill</text>
    <text x="400" y="65">🧠 Memory</text>
    <text x="475" y="65">🌙 Consolidate</text>
    <rect x="565" y="48" width="100" height="26" rx="13" fill="rgba(201,164,86,0.12)" stroke="#8b6f30"/>
    <text x="615" y="65" fill="#e9c378" font-weight="600" text-anchor="middle">📊 Dashboard</text>
    <text x="690" y="65">📝 Prompts</text>
    <text x="755" y="65">👥 Users</text>
    <text x="815" y="65">🔌 Connectors</text>
    <text x="900" y="65">🛡 Policies</text>
    <text x="975" y="65">💾 Admin</text>
  </g>

  <!-- Heading -->
  <text x="280" y="116" fill="#ecedf0" font-size="22" font-weight="700">📊 Organization Dashboard</text>
  <text x="280" y="140" fill="#a8acb8" font-size="13">acme-corp · 過去 30 日</text>

  <!-- Top metrics row -->
  <g>
    <rect x="280" y="170" width="208" height="78" rx="10" fill="#15171f" stroke="#23262f"/>
    <text x="298" y="193" fill="#a8acb8" font-size="11">Active users</text>
    <text x="298" y="222" fill="#ecedf0" font-size="28" font-weight="700">142</text>
    <text x="298" y="240" fill="#28c941" font-size="11">▲ +12 vs 先月</text>

    <rect x="500" y="170" width="208" height="78" rx="10" fill="#15171f" stroke="#23262f"/>
    <text x="518" y="193" fill="#a8acb8" font-size="11">Total flow runs</text>
    <text x="518" y="222" fill="#ecedf0" font-size="28" font-weight="700">3,847</text>
    <text x="518" y="240" fill="#28c941" font-size="11">▲ +28%</text>

    <rect x="720" y="170" width="208" height="78" rx="10" fill="#15171f" stroke="#23262f"/>
    <text x="738" y="193" fill="#a8acb8" font-size="11">Total skill runs</text>
    <text x="738" y="222" fill="#ecedf0" font-size="28" font-weight="700">12,453</text>
    <text x="738" y="240" fill="#28c941" font-size="11">▲ +44%</text>

    <rect x="940" y="170" width="208" height="78" rx="10" fill="#15171f" stroke="#c9a456"/>
    <text x="958" y="193" fill="#c9a456" font-size="11">Org success rate</text>
    <text x="958" y="222" fill="#e9c378" font-size="28" font-weight="700">68%</text>
    <text x="958" y="240" fill="#28c941" font-size="11">▲ +6pt</text>
  </g>

  <!-- Second row -->
  <g>
    <rect x="280" y="270" width="280" height="62" rx="10" fill="#15171f" stroke="#23262f"/>
    <text x="298" y="293" fill="#a8acb8" font-size="11">Promoted shared blocks</text>
    <text x="298" y="320" fill="#ecedf0" font-size="22" font-weight="700">38</text>
    <text x="380" y="320" fill="#a8acb8" font-size="12">/ 月次 +12 件</text>

    <rect x="572" y="270" width="280" height="62" rx="10" fill="#15171f" stroke="#23262f"/>
    <text x="590" y="293" fill="#a8acb8" font-size="11">Frozen Markdown files (git)</text>
    <text x="590" y="320" fill="#ecedf0" font-size="22" font-weight="700">17</text>

    <rect x="864" y="270" width="284" height="62" rx="10" fill="#15171f" stroke="#23262f"/>
    <text x="882" y="293" fill="#a8acb8" font-size="11">Distributed (skills / prompts)</text>
    <text x="882" y="320" fill="#ecedf0" font-size="22" font-weight="700">9 / 14</text>
  </g>

  <!-- Top users / top skills -->
  <text x="280" y="372" fill="#ecedf0" font-size="14" font-weight="600">Top users (events / 30d)</text>
  <rect x="280" y="384" width="430" height="280" rx="10" fill="#15171f" stroke="#23262f"/>
  <g font-size="12">
    <text x="300" y="408" fill="#a8acb8">user</text><text x="660" y="408" fill="#a8acb8" text-anchor="end">events</text>
    <line x1="296" y1="416" x2="694" y2="416" stroke="#23262f"/>
    <text x="300" y="438" fill="#ecedf0">alice@acme</text>
    <rect x="450" y="426" width="180" height="14" fill="url(#g2)"/>
    <text x="660" y="438" fill="#e9c378" text-anchor="end">486</text>

    <text x="300" y="468" fill="#ecedf0">bob@acme</text>
    <rect x="450" y="456" width="155" height="14" fill="url(#g2)"/>
    <text x="660" y="468" fill="#ecedf0" text-anchor="end">412</text>

    <text x="300" y="498" fill="#ecedf0">charlie@acme</text>
    <rect x="450" y="486" width="125" height="14" fill="url(#g2)"/>
    <text x="660" y="498" fill="#ecedf0" text-anchor="end">328</text>

    <text x="300" y="528" fill="#ecedf0">dana@acme</text>
    <rect x="450" y="516" width="98" height="14" fill="url(#g2)"/>
    <text x="660" y="528" fill="#ecedf0" text-anchor="end">256</text>

    <text x="300" y="558" fill="#ecedf0">eric@acme</text>
    <rect x="450" y="546" width="80" height="14" fill="url(#g2)"/>
    <text x="660" y="558" fill="#ecedf0" text-anchor="end">211</text>

    <text x="300" y="588" fill="#ecedf0">frank@acme</text>
    <rect x="450" y="576" width="64" height="14" fill="url(#g2)"/>
    <text x="660" y="588" fill="#ecedf0" text-anchor="end">170</text>
  </g>

  <text x="722" y="372" fill="#ecedf0" font-size="14" font-weight="600">Top skills (invocations)</text>
  <rect x="722" y="384" width="430" height="280" rx="10" fill="#15171f" stroke="#23262f"/>
  <g font-size="12">
    <text x="742" y="408" fill="#a8acb8">skill</text><text x="1132" y="408" fill="#a8acb8" text-anchor="end">count</text>
    <line x1="738" y1="416" x2="1136" y2="416" stroke="#23262f"/>
    <text x="742" y="438" fill="#ecedf0">sales_strategist</text>
    <rect x="900" y="426" width="220" height="14" fill="url(#g2)"/>
    <text x="1132" y="438" fill="#e9c378" text-anchor="end">3,124</text>

    <text x="742" y="468" fill="#ecedf0">legal_reviewer</text>
    <rect x="900" y="456" width="195" height="14" fill="url(#g2)"/>
    <text x="1132" y="468" fill="#ecedf0" text-anchor="end">2,841</text>

    <text x="742" y="498" fill="#ecedf0">design_reviewer</text>
    <rect x="900" y="486" width="155" height="14" fill="url(#g2)"/>
    <text x="1132" y="498" fill="#ecedf0" text-anchor="end">2,103</text>

    <text x="742" y="528" fill="#ecedf0">purchasing_analyst</text>
    <rect x="900" y="516" width="120" height="14" fill="url(#g2)"/>
    <text x="1132" y="528" fill="#ecedf0" text-anchor="end">1,742</text>

    <text x="742" y="558" fill="#ecedf0">investment_analyst</text>
    <rect x="900" y="546" width="95" height="14" fill="url(#g2)"/>
    <text x="1132" y="558" fill="#ecedf0" text-anchor="end">1,289</text>

    <text x="742" y="588" fill="#ecedf0">patent_analyst</text>
    <rect x="900" y="576" width="65" height="14" fill="url(#g2)"/>
    <text x="1132" y="588" fill="#ecedf0" text-anchor="end">1,054</text>
  </g>

  <defs>
    <linearGradient id="g2" x1="0" x2="1">
      <stop offset="0" stop-color="#c9a456"/>
      <stop offset="1" stop-color="#8b6f30"/>
    </linearGradient>
  </defs>
</svg>
