<svg xmlns="http://www.w3.org/2000/svg" viewBox="0 0 1200 720" font-family="-apple-system, BlinkMacSystemFont, 'Segoe UI', Inter, sans-serif">
  <rect width="1200" height="720" fill="#0a0a0f"/>
  <rect x="0" y="0" width="1200" height="34" fill="#161821"/>
  <circle cx="20" cy="17" r="6" fill="#ff6058"/><circle cx="40" cy="17" r="6" fill="#febc3a"/><circle cx="60" cy="17" r="6" fill="#28c941"/>
  <text x="135" y="22" fill="#a8acb8" font-size="11">🔒 http://localhost:8501  —  Praxia / Skill</text>

  <rect x="0" y="34" width="240" height="686" fill="#0e1018"/>
  <text x="20" y="62" fill="#ecedf0" font-size="16" font-weight="700">🪡 Praxia</text>

  <!-- Tabs -->
  <g font-size="12" fill="#a8acb8">
    <text x="290" y="65">🎬 Run</text>
    <rect x="345" y="48" width="76" height="26" rx="13" fill="rgba(201,164,86,0.12)" stroke="#8b6f30"/>
    <text x="383" y="65" fill="#e9c378" font-weight="600" text-anchor="middle">🛠 Skill</text>
    <text x="430" y="65">🧠 Memory</text>
    <text x="505" y="65">🌙 Consolidate</text>
    <text x="600" y="65">📊 Dashboard</text>
    <text x="680" y="65">📝 Prompts</text>
    <text x="745" y="65">👥 Users</text>
    <text x="800" y="65">🔌 Connectors</text>
    <text x="885" y="65">🛡 Policies</text>
    <text x="955" y="65">💾 Admin</text>
  </g>

  <text x="280" y="116" fill="#ecedf0" font-size="22" font-weight="700">🛠 Business Skill を実行</text>

  <!-- Skill chips -->
  <g font-size="12">
    <rect x="280" y="146" width="118" height="32" rx="16" fill="#15171f" stroke="#23262f"/>
    <text x="339" y="166" fill="#a8acb8" font-weight="600" text-anchor="middle">💰 投資</text>

    <rect x="408" y="146" width="118" height="32" rx="16" fill="#15171f" stroke="#23262f"/>
    <text x="467" y="166" fill="#a8acb8" font-weight="600" text-anchor="middle">📈 営業</text>

    <rect x="536" y="146" width="118" height="32" rx="16" fill="#15171f" stroke="#23262f"/>
    <text x="595" y="166" fill="#a8acb8" font-weight="600" text-anchor="middle">🏗 設計</text>

    <rect x="664" y="146" width="118" height="32" rx="16" fill="#15171f" stroke="#23262f"/>
    <text x="723" y="166" fill="#a8acb8" font-weight="600" text-anchor="middle">🛒 購買</text>

    <rect x="792" y="146" width="118" height="32" rx="16" fill="#15171f" stroke="#23262f"/>
    <text x="851" y="166" fill="#a8acb8" font-weight="600" text-anchor="middle">📑 特許</text>

    <rect x="920" y="146" width="118" height="32" rx="16" fill="rgba(201,164,86,0.14)" stroke="#8b6f30"/>
    <text x="979" y="166" fill="#e9c378" font-weight="600" text-anchor="middle">⚖️ 法務</text>
  </g>

  <text x="280" y="208" fill="#a8acb8" font-size="12">⚖️ legal_reviewer · domain: legal · 契約書レビュー / コンプライアンス / M&amp;A</text>

  <text x="280" y="240" fill="#a8acb8" font-size="11">Input</text>
  <rect x="280" y="248" width="900" height="120" rx="6" fill="#15171f" stroke="#23262f"/>
  <text x="296" y="270" fill="#ecedf0" font-size="12">業務委託契約書 (添付) のリスクレビューをお願いします。</text>
  <text x="296" y="290" fill="#ecedf0" font-size="12">RACE フレームで Critical / Major / Minor 判定 + 必須交渉ポイント TOP3。</text>
  <text x="296" y="324" fill="#a8acb8" font-size="11" font-family="JetBrains Mono, Consolas, monospace">$ cat services_agreement.txt | praxia skill run legal -</text>

  <rect x="280" y="384" width="100" height="36" rx="18" fill="url(#gskill)"/>
  <text x="330" y="407" fill="#1a1408" font-size="13" font-weight="700" text-anchor="middle">▶ 実行</text>

  <!-- Output -->
  <rect x="280" y="440" width="900" height="246" rx="10" fill="#15171f" stroke="#c9a456"/>
  <text x="296" y="462" fill="#e9c378" font-size="11" font-weight="700">⚖️ legal_reviewer (claude)</text>

  <text x="296" y="486" fill="#ecedf0" font-size="13" font-weight="600">## レビューサマリ</text>
  <text x="296" y="506" fill="#ecedf0" font-size="12">🟡 要交渉 (Critical 2 件、Major 4 件、Minor 7 件)</text>

  <text x="296" y="534" fill="#ecedf0" font-size="13" font-weight="600">## リスクテーブル</text>
  <g font-size="11">
    <text x="296" y="556" fill="#a8acb8">条項          原文抜粋                                 リスク       推奨修正案</text>
    <line x1="296" y1="562" x2="1164" y2="562" stroke="#23262f"/>
    <text x="296" y="580" fill="#ff8b80">第 12 条      乙は甲に対し、本契約に関連する一切の…    🔴 Critical  過去 12 ヶ月の業務委託料を上限</text>
    <text x="296" y="598" fill="#ff8b80">第 8 条       成果物の知的財産権は甲に帰属する         🔴 Critical  本業務由来分のみに限定</text>
    <text x="296" y="616" fill="#ffce5c">第 15 条      米国カリフォルニア州法                  🟡 Major     東京地裁または JCAA 仲裁</text>
  </g>

  <text x="296" y="652" fill="#ecedf0" font-size="13" font-weight="600">## 必須交渉ポイント TOP3</text>
  <text x="296" y="672" fill="#a8acb8" font-size="12">1. 損害賠償の上限 · 2. IP 帰属範囲 · 3. 反社条項の追加 (記載なし)</text>

  <defs>
    <linearGradient id="gskill" x1="0" x2="1" y2="1">
      <stop offset="0" stop-color="#e9c378"/>
      <stop offset="1" stop-color="#8b6f30"/>
    </linearGradient>
  </defs>
</svg>
